<svg version="1.1" id="Ebene_1" x="0" y="0" xml:space="preserve" width="121.78" height="50" xmlns="http://www.w3.org/2000/svg"><style type="text/css" id="style2">.st1{fill:#e3000f}</style><g id="g10" transform="scale(.29958)"><path class="st1" d="M108.7 151.1c-13.3 10.5-31.1 15.8-48.2 15.8-21.4 0-42.6-5.2-60.5-19.8l19.8-33.2c11 9 24.1 17.3 39.2 17.3 10.4 0 20.5-3.1 20.5-14.2 0-11.6-16.4-12.2-25.9-14.6-20.5-5.3-46-12.2-46-49.2C7.6 21 32.2 0 66.2 0c17.1 0 38.9 7.9 54 15.9l-18.8 31.3c-8.7-5.6-22.7-8.9-29.3-8.9-8.1 0-18.5 2.3-18.5 11.1 0 9.3 10.3 11 19.6 13.5 0 0 11.5 2.5 16.3 4.1 21.1 6.9 36.8 14.3 36.8 42.4 0 15.7-4.1 31-17.6 41.7" id="path4"/><path class="st1" d="M207.4 3.2h-70.3v158.9h45.3v-52.4h23c40 0 53-23 53-54.1 0-23.1-10.6-52.4-51-52.4zm-21.6 71.7h-3.5V37.8h3.5c16.1 0 29.8 0 29.8 18.6 0 19.4-14.8 18.5-29.8 18.5z" id="path6"/><path class="st1" d="M335.5 3.8h-67.1v158.9h67.1c43.9 0 71-35.1 71-79.7s-26.9-79.2-71-79.2zm-17.4 121.9h-4.9V40.9h5.3c26.5 0 42.6 17.3 42.6 41.6 0 28.8-18.4 43.2-43 43.2z" id="path8"/></g></svg>