<?xml version="1.0" encoding="UTF-8" standalone="no"?>
<svg
   width="60mm"
   height="60mm"
   version="1.1"
   style="clip-rule:evenodd;fill-rule:evenodd;image-rendering:optimizeQuality;shape-rendering:geometricPrecision;text-rendering:geometricPrecision"
   viewBox="0 0 5999.9998 5999.9998"
   id="svg47"
   xmlns="http://www.w3.org/2000/svg"
   xmlns:svg="http://www.w3.org/2000/svg">
  <defs
     id="defs4">
    <style
       type="text/css"
       id="style2">  .fil0 {fill:#011627} .fil2 {fill:#F0F0F0} .fil3 {fill:#011627;fill-rule:nonzero} .fil1 {fill:#011627;fill-opacity:0.501961}  </style>
  </defs>
  <g
     id="Layer_x0020_1"
     transform="translate(-2367,-2367)">
    <metadata
       id="CorelCorpID_0Corel-Layer" />
    <rect
       class="fil0"
       x="8882"
       y="7755"
       width="16.93"
       height="16.940001"
       id="rect7" />
    <polygon
       class="fil1"
       points="8882,7755 8873,7755 8873,7772 8882,7772 "
       id="polygon9" />
    <polygon
       class="fil1"
       points="8907,7755 8898,7755 8898,7772 8907,7772 "
       id="polygon11" />
    <polygon
       class="fil1"
       points="8882,7772 8882,7781 8898,7781 8898,7772 "
       id="polygon13" />
    <polygon
       class="fil1"
       points="8882,7747 8882,7755 8898,7755 8898,7747 "
       id="polygon15" />
    <rect
       class="fil0"
       x="8882"
       y="7696"
       width="16.93"
       height="16.940001"
       id="rect17" />
    <rect
       class="fil0"
       x="8865"
       y="7705"
       width="16.93"
       height="16.940001"
       id="rect19" />
    <rect
       class="fil0"
       x="8848"
       y="7713"
       width="16.93"
       height="16.940001"
       id="rect21" />
    <rect
       class="fil0"
       x="8898"
       y="7705"
       width="16.93"
       height="16.940001"
       id="rect23" />
    <rect
       class="fil0"
       x="8915"
       y="7713"
       width="16.93"
       height="16.940001"
       id="rect25" />
    <rect
       class="fil0"
       x="8882"
       y="7645"
       width="16.93"
       height="16.940001"
       id="rect27" />
    <rect
       class="fil0"
       x="8865"
       y="7654"
       width="16.93"
       height="16.940001"
       id="rect29" />
    <rect
       class="fil0"
       x="8848"
       y="7662"
       width="16.93"
       height="16.940001"
       id="rect31" />
    <rect
       class="fil0"
       x="8898"
       y="7654"
       width="16.93"
       height="16.940001"
       id="rect33" />
    <rect
       class="fil0"
       x="8915"
       y="7662"
       width="16.93"
       height="16.940001"
       id="rect35" />
    <rect
       class="fil0"
       x="8932"
       y="7671"
       width="16.93"
       height="16.940001"
       id="rect37" />
    <rect
       class="fil0"
       x="8831"
       y="7671"
       width="16.93"
       height="16.940001"
       id="rect39" />
    <path
       class="fil3"
       d="m 6098.9999,7571.9999 h -2849 c -48,0 -88,-39 -88,-88 0,-563 54,-901 312,-1159 243,-244 660,-399 1383,-595 v -158 c -241,-125 -422,-425 -506,-772 -52,-214 -68,-448 -38,-669 30,-225 108,-438 242,-608 173,-218 438,-361 812,-361 374,0 639,143 812,361 134,170 212,383 242,608 30,221 14,455 -38,669 -84,347 -265,647 -506,772 v 158 c 723,196 1140,351 1383,595 258,258 312,596 312,1159 0,49 -40,88 -88,88 z m -2760,-176 h 4056 c -5,-462 -57,-745 -260,-947 -222,-223 -634,-370 -1364,-566 -40,-8 -70,-43 -70,-86 v -281 c 0,-35 21,-69 56,-82 212,-83 377,-354 455,-675 47,-194 62,-405 35,-605 -26,-195 -92,-378 -206,-521 -141,-178 -360,-295 -674,-295 -314,0 -533,117 -674,295 -114,143 -180,326 -206,521 -27,200 -12,411 35,605 77,319 241,588 451,673 35,12 60,45 60,84 v 281 c 0,39 -26,75 -65,85 -733,197 -1146,344 -1369,567 -203,202 -255,485 -260,947 z"
       id="path43" />
  </g>
</svg>
