<?xml version="1.0" standalone="no"?>
<!DOCTYPE svg PUBLIC "-//W3C//DTD SVG 20010904//EN"
 "http://www.w3.org/TR/2001/REC-SVG-20010904/DTD/svg10.dtd">
<svg version="1.0" xmlns="http://www.w3.org/2000/svg"
 width="1952.000000pt" height="1952.000000pt" viewBox="0 0 1952.000000 1952.000000"
 preserveAspectRatio="xMidYMid meet">
<metadata>
Created by potrace 1.14, written by Peter Selinger 2001-2017
</metadata>
<g transform="translate(0.000000,1952.000000) scale(0.100000,-0.100000)"
fill="#000000" stroke="none">
<path d="M2948 13755 c-2 -2 -41 -6 -88 -9 -47 -3 -96 -8 -110 -11 -14 -2 -45
-7 -70 -10 -25 -3 -55 -7 -67 -9 -11 -3 -43 -8 -70 -12 -50 -8 -58 -10 -70
-14 -5 -1 -11 -2 -15 -2 -7 1 -166 -38 -254 -63 -115 -33 -343 -118 -379 -142
-11 -7 -27 -13 -36 -13 -10 0 -19 -3 -21 -7 -1 -5 -39 -26 -83 -47 -44 -22
-98 -51 -120 -65 -22 -14 -52 -32 -67 -40 -16 -8 -28 -18 -28 -23 0 -4 -6 -8
-12 -8 -21 -1 -205 -141 -302 -230 -98 -90 -140 -134 -251 -263 -123 -144
-278 -413 -360 -627 -35 -90 -74 -210 -68 -210 3 0 0 -7 -7 -15 -7 -8 -10 -15
-7 -15 3 0 0 -21 -8 -47 -15 -54 -35 -151 -51 -253 -3 -19 -7 -46 -9 -59 -15
-88 -27 -531 -16 -555 2 -5 5 -34 7 -65 3 -62 10 -130 17 -176 3 -16 8 -50 11
-75 3 -25 8 -55 11 -67 3 -13 7 -33 10 -45 15 -69 58 -234 63 -243 4 -5 7 -14
9 -20 5 -23 30 -85 36 -91 4 -4 7 -13 7 -20 0 -44 157 -323 237 -420 23 -30
43 -56 43 -60 0 -9 179 -185 245 -240 161 -134 398 -271 640 -369 110 -45 357
-130 470 -161 6 -2 44 -13 85 -24 66 -19 154 -42 200 -54 8 -2 44 -12 80 -21
36 -9 72 -19 80 -20 8 -2 15 -4 15 -5 0 -1 11 -3 25 -5 14 -2 36 -6 50 -10 27
-7 46 -10 100 -20 19 -3 46 -9 60 -11 14 -3 38 -7 55 -10 16 -2 38 -7 47 -10
10 -3 30 -7 45 -10 30 -5 260 -62 281 -69 7 -2 16 -5 20 -6 15 -3 106 -40 170
-70 158 -74 279 -202 307 -323 26 -115 26 -175 1 -321 -1 -5 -4 -14 -7 -20 -4
-5 -12 -28 -19 -50 -28 -86 -102 -179 -203 -253 -51 -38 -194 -107 -240 -116
-12 -2 -29 -7 -37 -10 -8 -3 -27 -8 -42 -11 -16 -3 -38 -7 -50 -10 -22 -4 -45
-8 -143 -21 -69 -9 -333 -10 -408 -1 -40 4 -85 10 -102 11 -16 2 -30 5 -30 6
0 1 -13 3 -30 5 -35 4 -80 12 -115 22 -14 4 -29 8 -35 8 -19 3 -100 26 -127
37 -15 5 -31 10 -35 10 -9 0 -125 42 -163 59 -14 7 -34 15 -45 19 -46 16 -301
146 -377 191 -45 27 -85 49 -90 49 -4 0 -8 5 -8 10 0 6 -7 10 -15 10 -8 0 -15
5 -15 10 0 6 -5 10 -10 10 -6 0 -34 16 -63 37 -144 100 -182 128 -185 135 -2
5 -8 8 -13 8 -5 0 -19 9 -31 19 -13 11 -63 51 -113 90 l-90 71 -21 -26 c-11
-14 -31 -47 -45 -74 -13 -27 -27 -50 -31 -50 -5 0 -8 -7 -8 -15 0 -8 -4 -15
-10 -15 -5 0 -10 -4 -10 -9 0 -7 -87 -157 -132 -229 -10 -15 -21 -34 -25 -42
-3 -8 -17 -32 -30 -53 -13 -21 -32 -53 -42 -70 -10 -18 -48 -81 -85 -141 -36
-60 -66 -110 -66 -111 0 -2 -36 -62 -80 -135 -44 -73 -80 -136 -80 -141 0 -5
-4 -9 -9 -9 -5 0 -13 -10 -17 -22 -4 -13 -15 -34 -24 -48 -20 -28 -206 -341
-226 -379 -12 -23 -9 -26 44 -67 31 -24 62 -47 67 -52 6 -4 42 -30 80 -57 39
-27 72 -52 75 -55 3 -4 21 -15 40 -26 19 -10 37 -22 40 -25 3 -3 34 -23 70
-45 36 -21 68 -43 72 -49 4 -5 8 -6 8 -2 0 5 12 -1 28 -11 34 -25 296 -159
372 -191 30 -13 69 -29 85 -36 81 -34 191 -77 205 -80 8 -2 62 -20 120 -40 58
-19 114 -37 125 -40 11 -2 36 -9 55 -14 92 -25 156 -42 170 -45 8 -1 31 -6 50
-11 19 -5 37 -9 40 -10 3 -1 25 -5 50 -9 25 -5 54 -10 65 -13 11 -2 31 -6 45
-9 14 -2 34 -6 46 -9 11 -2 43 -7 70 -10 50 -6 89 -12 134 -20 14 -2 52 -7 85
-10 33 -3 76 -8 95 -10 152 -18 778 -27 895 -12 28 4 74 9 104 12 30 3 70 8
90 11 20 4 52 8 71 9 19 2 35 4 35 5 0 2 12 4 108 21 78 14 86 15 90 18 1 2
13 4 27 6 14 2 54 11 90 20 36 9 72 18 80 20 8 2 36 10 63 18 26 8 47 13 47
10 0 -3 7 0 15 7 8 7 15 9 15 6 0 -4 9 -2 21 4 11 6 29 13 39 15 10 2 65 20
122 41 93 33 129 47 223 89 17 7 46 20 65 28 19 9 39 16 44 15 5 0 12 4 15 9
3 4 40 25 81 45 106 53 174 92 178 101 2 4 10 7 18 7 8 0 14 5 14 11 0 5 4 8
9 5 5 -4 11 -3 13 1 4 10 77 57 100 66 10 3 18 11 18 17 0 5 5 10 10 10 24 0
260 191 354 286 49 48 139 150 161 180 11 15 25 32 30 38 24 25 137 205 167
266 18 36 35 67 38 70 6 6 27 51 28 63 1 4 9 22 18 39 36 70 114 313 138 428
3 14 7 36 10 50 30 138 47 262 50 352 1 21 3 38 6 38 9 0 13 402 5 505 -12
165 -18 222 -30 273 -3 15 -7 41 -9 57 -10 70 -62 254 -92 322 -8 17 -14 34
-14 37 0 13 -107 223 -120 236 -3 3 -21 28 -40 56 -66 97 -204 245 -270 291
-13 9 -31 24 -41 34 -22 22 -205 143 -266 176 -128 69 -260 131 -388 183 -126
51 -450 165 -498 175 -9 2 -22 7 -27 10 -5 3 -18 8 -27 10 -10 2 -43 11 -73
20 -30 9 -66 18 -80 21 -14 2 -32 7 -40 10 -8 3 -28 8 -45 11 -16 3 -38 9 -47
14 -10 5 -30 11 -45 13 -15 2 -50 9 -78 16 -27 7 -59 14 -70 16 -11 2 -49 11
-85 19 -36 9 -76 18 -90 21 -14 3 -68 16 -120 30 -52 14 -111 29 -130 34 -124
29 -337 96 -357 112 -7 5 -17 7 -23 3 -5 -3 -10 -3 -10 2 0 4 -15 14 -32 22
-174 74 -303 217 -325 361 -8 48 -8 158 0 199 9 51 63 156 100 193 125 128
339 210 609 232 26 2 51 7 57 10 5 4 12 2 16 -4 4 -6 10 -8 15 -5 10 6 131 7
195 1 141 -14 244 -32 415 -71 70 -16 218 -58 245 -69 18 -8 36 -12 39 -8 3 3
6 -1 6 -8 0 -7 3 -11 6 -7 8 8 183 -56 309 -113 22 -10 45 -19 50 -21 6 -1 32
-15 58 -31 26 -15 50 -28 52 -28 2 0 27 -13 55 -30 28 -16 53 -30 55 -30 4 0
78 117 88 140 11 23 175 293 187 308 6 6 22 33 36 60 13 26 47 82 74 125 28
43 50 80 50 82 0 2 18 32 40 66 22 35 47 78 56 94 9 17 47 80 84 140 69 113
149 247 180 300 9 17 36 62 60 100 23 39 44 73 46 77 3 4 -13 15 -33 24 -21
10 -51 27 -68 38 -16 12 -32 20 -35 19 -3 -2 -45 17 -95 41 -214 104 -540 244
-557 238 -5 -1 -8 2 -8 8 0 5 -6 10 -12 10 -7 0 -80 25 -163 56 -82 30 -160
57 -173 60 -12 2 -46 13 -75 24 -52 19 -285 88 -322 96 -11 2 -74 17 -140 33
-110 27 -281 61 -379 76 -21 3 -48 7 -60 10 -12 3 -40 7 -63 9 -23 2 -47 7
-52 11 -6 3 -11 1 -11 -5 0 -6 -4 -9 -8 -6 -23 14 -88 18 -319 21 -138 2 -253
2 -255 0z"/>
<path d="M6590 9793 c0 -3624 1 -3813 18 -3814 9 -1 21 -1 25 0 4 1 40 1 80 1
151 0 192 1 196 5 2 2 11 0 20 -5 10 -5 23 -5 31 0 7 4 24 4 36 0 13 -5 26 -5
28 -1 5 8 58 6 83 -4 7 -2 15 0 18 5 3 6 15 6 30 0 15 -6 27 -6 30 1 4 5 11 7
16 3 5 -3 38 -5 72 -4 34 0 82 1 107 0 94 -1 165 1 169 5 2 2 11 0 20 -5 10
-5 23 -5 31 0 7 4 24 4 36 0 14 -6 26 -5 29 1 4 5 11 7 16 3 5 -3 38 -5 72 -4
34 0 82 1 107 0 94 -1 165 1 169 5 2 2 11 0 20 -5 10 -5 23 -5 31 0 7 4 24 4
36 0 14 -6 26 -5 29 1 4 5 11 7 16 3 5 -3 38 -5 72 -4 34 0 82 1 107 0 94 -1
165 1 169 5 2 2 11 0 20 -5 10 -5 23 -5 31 0 7 4 23 4 36 0 12 -5 25 -6 28 -3
3 4 36 5 73 4 l68 -2 0 1255 c0 691 2 1257 5 1257 3 1 295 2 650 4 571 2 796
7 880 20 24 4 102 13 168 20 18 2 42 7 52 10 10 3 39 8 65 11 26 2 51 7 55 9
4 3 24 7 45 11 29 4 148 37 290 78 6 2 21 8 35 13 14 6 45 17 70 26 151 51
394 191 558 321 46 37 234 231 272 281 25 33 48 62 53 63 4 2 7 7 7 12 0 7 53
92 78 125 27 37 106 201 153 316 35 89 101 297 114 362 13 65 16 81 20 87 2 4
7 29 11 56 3 27 10 58 15 70 4 12 6 24 3 26 -2 3 1 30 6 61 6 31 13 80 15 109
2 29 7 80 10 113 14 140 20 474 10 610 -9 132 -17 231 -20 235 -2 3 -7 33 -10
65 -4 33 -9 63 -11 66 -2 4 -6 24 -10 45 -3 22 -9 55 -14 74 -5 19 -11 46 -14
60 -11 53 -16 75 -32 129 -10 31 -18 61 -20 67 -3 19 -55 168 -70 202 -8 17
-21 49 -30 70 -29 67 -106 216 -125 244 -11 14 -19 29 -19 32 0 8 -100 156
-118 174 -7 8 -25 30 -40 50 -31 43 -116 135 -184 200 -61 58 -259 212 -273
212 -6 0 -20 8 -31 18 -34 30 -248 142 -271 142 -7 0 -13 4 -13 10 0 5 -3 9
-7 9 -5 -1 -10 0 -13 1 -3 1 -12 3 -20 5 -8 1 -32 10 -53 18 -20 9 -41 17 -45
18 -4 1 -32 10 -62 21 -64 22 -230 65 -285 74 -21 3 -47 8 -59 10 -55 13 -58
13 -211 30 -27 4 -75 8 -105 9 -30 2 -55 5 -55 6 0 1 -809 3 -1797 4 l-1798 1
0 -3813z m2831 2143 c53 -4 110 -9 125 -11 128 -17 175 -25 219 -37 22 -5 40
-9 40 -9 0 1 25 -7 56 -18 79 -27 174 -76 223 -114 44 -34 125 -118 126 -129
0 -4 7 -13 15 -22 46 -45 108 -237 124 -381 10 -93 3 -390 -9 -390 -1 0 -3
-12 -5 -26 -12 -90 -62 -220 -116 -299 -39 -57 -93 -120 -104 -120 -4 0 -12
-6 -20 -12 -30 -29 -53 -46 -83 -59 -18 -8 -32 -18 -32 -22 0 -5 -4 -6 -9 -2
-5 3 -12 1 -15 -4 -7 -11 -137 -54 -211 -70 -154 -34 -299 -43 -669 -45 -301
-1 -308 -1 -316 19 -4 11 -4 25 0 30 4 6 5 19 3 30 -5 21 -5 39 -4 95 1 19 0
87 -1 152 -2 64 -1 115 2 113 3 -2 4 13 2 33 -3 42 -3 49 -3 77 1 11 1 31 0
45 0 14 0 41 0 60 1 19 0 50 -2 68 -2 17 0 37 4 43 4 7 3 25 -1 40 -6 20 -5
29 3 29 8 0 8 3 2 8 -10 7 -15 163 -4 157 3 -2 3 11 1 28 -4 36 -4 57 -3 107
1 19 0 87 -1 152 -2 64 -1 115 2 113 3 -2 4 13 2 33 -3 45 -4 52 -2 77 1 11 0
29 -3 40 -2 11 -1 33 3 50 4 17 3 41 -1 53 -5 12 -4 24 1 27 5 3 5 18 1 33 -5
15 -5 36 -1 48 8 20 13 20 287 18 153 -1 321 -5 374 -8z"/>
<path d="M12896 13571 c-2 -3 -4 -1719 -4 -3813 l0 -3807 1732 3 c952 1 1756
5 1786 8 30 4 87 9 125 13 39 4 79 9 90 11 11 2 40 7 64 10 59 8 306 60 306
64 0 1 9 3 20 5 30 5 137 35 160 44 11 5 74 28 140 51 132 46 317 132 459 211
103 58 237 146 248 163 5 6 8 7 8 1 0 -7 3 -7 8 0 4 6 32 29 63 52 31 23 63
48 72 57 8 9 18 16 22 16 8 0 126 106 238 215 54 53 181 193 232 258 17 21 35
44 40 50 27 32 95 127 95 132 0 3 5 12 13 19 8 8 29 38 48 68 18 29 37 55 41
56 5 2 8 8 8 13 0 6 15 33 33 62 18 29 40 66 49 82 35 67 157 306 157 308 0 1
5 16 12 32 7 17 13 32 14 35 1 3 9 22 18 44 9 21 17 41 17 43 0 3 7 19 14 36
19 42 86 235 92 266 3 13 11 39 19 57 8 19 13 34 11 34 -2 0 7 37 21 83 13 45
26 100 29 122 3 21 7 42 9 45 5 8 42 191 50 245 3 22 10 67 15 100 12 77 24
192 37 345 15 170 7 763 -11 870 -3 14 -7 53 -10 86 -3 34 -8 68 -10 75 -3 8
-8 43 -11 77 -2 35 -7 67 -10 72 -3 4 -7 23 -9 41 -9 66 -18 114 -23 122 -2 4
-6 22 -8 40 -4 33 -12 72 -15 72 -1 0 -4 11 -6 25 -3 14 -9 43 -15 65 -6 22
-13 49 -16 60 -8 38 -11 50 -13 50 -1 0 -3 7 -5 15 -7 33 -65 210 -93 288 -17
45 -28 82 -24 82 4 0 2 4 -4 8 -6 4 -22 36 -36 72 -14 36 -42 99 -61 140 -19
41 -35 79 -35 84 0 5 -4 12 -9 15 -5 3 -19 26 -31 51 -33 67 -83 158 -122 221
-19 30 -39 63 -45 71 -24 40 -128 188 -144 205 -9 10 -28 34 -41 53 -13 19
-29 40 -35 46 -5 6 -37 42 -70 80 -135 155 -331 337 -490 455 -33 24 -61 47
-63 52 -2 4 -7 7 -12 7 -5 0 -49 27 -98 60 -50 33 -95 60 -100 60 -6 0 -12 3
-14 8 -5 12 -293 159 -348 177 -3 1 -18 7 -35 14 -16 6 -55 21 -85 32 -30 12
-77 29 -104 40 -27 10 -55 19 -62 19 -7 0 -34 7 -60 16 -25 9 -54 17 -63 20
-9 2 -43 11 -76 19 -54 14 -187 42 -240 50 -11 1 -38 6 -60 9 -58 10 -168 24
-185 24 -8 1 -35 4 -60 7 -57 9 -3539 14 -3544 6z m2664 -1785 c14 -2 50 -7
80 -11 30 -3 69 -9 85 -12 17 -3 39 -7 50 -8 11 -2 20 -4 20 -5 0 -1 11 -3 25
-5 76 -10 272 -69 367 -111 17 -8 34 -14 37 -14 8 0 130 -61 181 -90 22 -13
52 -29 66 -37 15 -7 32 -20 39 -28 7 -8 18 -15 25 -15 6 0 20 -9 30 -20 10
-11 24 -20 31 -20 7 0 14 -3 16 -7 2 -5 32 -32 68 -62 92 -77 209 -199 265
-277 11 -15 26 -33 33 -40 6 -7 12 -17 12 -22 0 -5 9 -17 20 -27 11 -10 20
-22 20 -28 0 -5 9 -22 20 -37 19 -27 100 -186 133 -260 35 -82 95 -281 111
-371 10 -54 18 -102 21 -129 2 -14 4 -25 5 -25 3 0 9 -70 14 -180 3 -60 6
-112 7 -115 1 -3 1 -8 1 -11 -1 -4 -4 -71 -7 -150 -3 -79 -7 -155 -9 -169 -6
-57 -19 -146 -22 -165 -3 -11 -7 -36 -10 -55 -3 -19 -7 -43 -10 -52 -3 -9 -6
-25 -8 -35 -2 -10 -9 -38 -16 -63 -7 -25 -14 -53 -15 -62 -2 -10 -7 -23 -10
-28 -3 -5 -8 -18 -10 -27 -7 -35 -50 -148 -58 -154 -5 -3 -8 -9 -7 -13 0 -3
-9 -28 -21 -54 -12 -26 -23 -53 -25 -60 -1 -8 -10 -22 -18 -31 -9 -10 -16 -25
-16 -34 0 -9 -4 -17 -9 -17 -5 0 -14 -14 -21 -31 -7 -17 -18 -36 -24 -42 -6
-7 -29 -39 -51 -72 -22 -33 -53 -76 -70 -95 -58 -67 -140 -154 -169 -179 -15
-13 -34 -31 -41 -38 -8 -7 -16 -13 -19 -13 -3 0 -16 -10 -29 -22 -34 -33 -67
-59 -67 -53 0 3 -9 -3 -20 -13 -18 -17 -197 -126 -210 -128 -3 0 -41 -18 -85
-38 -151 -71 -430 -152 -590 -170 -27 -3 -61 -8 -74 -11 -40 -8 -207 -15 -361
-16 -221 -1 -199 -7 -196 47 1 25 -1 47 -6 50 -5 3 -5 11 -1 17 10 16 10 147
0 147 -5 0 -5 6 0 13 10 16 11 128 0 150 -4 9 -4 17 0 17 4 0 8 25 8 55 0 30
-4 55 -8 55 -5 0 -5 6 0 13 10 17 10 99 0 115 -6 7 -6 12 -1 12 11 0 11 91 0
108 -4 7 -4 12 1 12 10 0 9 242 -1 258 -4 7 -4 12 1 12 4 0 8 25 8 55 0 30 -4
55 -8 55 -5 0 -5 6 0 13 10 17 10 99 0 115 -6 7 -6 12 -1 12 11 0 11 91 0 108
-4 7 -4 12 1 12 4 0 7 33 5 73 -1 39 -3 77 -2 82 0 6 1 43 3 83 1 39 -2 72 -6
72 -5 0 -5 5 -1 12 11 18 11 241 1 256 -6 7 -6 12 -1 12 11 0 11 91 0 108 -4
7 -3 12 1 12 5 0 7 26 6 58 -2 31 -3 63 -3 70 0 6 0 32 0 57 0 49 0 49 0 145
-1 79 -1 69 3 158 1 39 -2 72 -6 72 -5 0 -5 5 -1 12 10 16 11 218 1 218 -5 0
-5 6 0 13 10 17 10 99 0 115 -6 7 -6 12 0 12 4 0 7 26 6 58 -2 31 -3 63 -3 70
1 50 1 161 0 177 0 17 -1 55 0 128 0 6 1 45 3 85 1 39 -2 72 -6 72 -5 0 -5 5
-1 12 11 18 11 241 1 256 -6 7 -6 12 0 12 5 0 8 21 7 47 -2 26 -1 50 2 54 4 7
467 3 514 -5z"/>
</g>
</svg>
